<?xml version="1.0" encoding="UTF-8" standalone="no"?>
<svg width="1926px" height="364px" viewBox="0 0 1926 364" version="1.1" xmlns="http://www.w3.org/2000/svg" xmlns:xlink="http://www.w3.org/1999/xlink">
    <!-- Generator: Sketch 42 (36781) - http://www.bohemiancoding.com/sketch -->
    <title>marca_geekhunter_horizontal_colorida</title>
    <desc>Created with Sketch.</desc>
    <defs></defs>
    <g id="Marca" stroke="none" stroke-width="1" fill="none" fill-rule="evenodd">
        <g id="marca_geekhunter_horizontal_colorida" transform="translate(-538.000000, -895.000000)">
            <g id="marca" transform="translate(593.000000, 945.000000)">
                <path d="M643.710519,190.505102 C635.787226,190.505102 628.511618,188.905479 621.883478,185.706184 C615.255339,182.506889 609.579603,178.126968 604.856101,172.566289 C600.132599,167.005609 596.475749,160.569029 593.885442,153.256355 C591.295134,145.943681 590,138.174082 590,129.947323 C590,121.263523 591.371319,113.189233 594.113997,105.724212 C596.856676,98.2591901 600.665894,91.7083512 605.541767,86.0714983 C610.41764,80.4346454 616.245745,76.0166378 623.026255,72.8173429 C629.806766,69.618048 637.310927,68.0184245 645.538962,68.0184245 C654.985966,68.0184245 663.213878,70.1131695 670.222946,74.3027224 C677.232013,78.4922752 682.945841,84.0909573 687.364601,91.0989366 L687.364601,70.0751038 L714.105583,70.0751038 L714.105583,184.106545 C714.105583,192.942692 712.467619,200.864637 709.191642,207.872616 C705.915664,214.880596 701.30651,220.822054 695.36404,225.69717 C689.42157,230.572286 682.412607,234.304741 674.336943,236.894646 C666.261278,239.484552 657.423891,240.779485 647.824516,240.779485 C634.568237,240.779485 623.483411,238.608568 614.569706,234.266667 C605.656,229.924767 597.999471,223.792877 591.599888,215.870814 L608.284432,199.645899 C612.855563,205.282752 618.607483,209.70076 625.540365,212.900055 C632.473247,216.09935 639.901223,217.698973 647.824516,217.698973 C652.548018,217.698973 657.080988,217.051506 661.423563,215.756554 C665.766137,214.461601 669.575356,212.443029 672.851333,209.700776 C676.12731,206.958523 678.717579,203.454586 680.622216,199.188859 C682.526854,194.923133 683.479159,189.895745 683.479159,184.106545 L683.479159,169.02423 C679.517512,175.879862 673.956053,181.173854 666.794615,184.906364 C659.633176,188.638875 651.938555,190.505102 643.710519,190.505102 L643.710519,190.505102 Z M654.224068,166.053471 C657.57623,166.053471 660.775974,165.520263 663.823395,164.453831 C666.870815,163.3874 669.651545,161.940121 672.165667,160.111953 C674.679789,158.283784 676.927228,156.150953 678.908051,153.713395 C680.888874,151.275837 682.412562,148.685971 683.479159,145.943718 L683.479159,117.378728 C680.73648,110.370748 676.470156,104.73398 670.680057,100.468253 C664.889957,96.2025269 658.795208,94.0696956 652.395624,94.0696956 C647.672123,94.0696956 643.367706,95.0980249 639.482244,97.1547145 C635.596783,99.2114041 632.282763,101.953616 629.540084,105.381432 C626.797406,108.809248 624.702336,112.732134 623.254811,117.150208 C621.807286,121.568282 621.083535,126.138634 621.083535,130.861403 C621.083535,135.736519 621.921563,140.306872 623.597644,144.572598 C625.273725,148.838325 627.597349,152.570779 630.568584,155.770074 C633.539819,158.969369 637.0443,161.483063 641.082132,163.311232 C645.119964,165.1394 649.500566,166.053471 654.224068,166.053471 L654.224068,166.053471 Z M797.299749,192.104742 C787.700374,192.104742 779.015355,190.467032 771.244433,187.191564 C763.47351,183.916095 756.84547,179.460001 751.360113,173.823148 C745.874756,168.186295 741.646523,161.635456 738.675288,154.170435 C735.704053,146.705413 734.218458,138.859641 734.218458,130.632883 C734.218458,122.10143 735.665961,114.065226 738.561011,106.524031 C741.45606,98.9828362 745.646201,92.3558247 751.131558,86.6427981 C756.616915,80.9297715 763.283047,76.3975051 771.130155,73.0458628 C778.977263,69.6942205 787.776558,68.0184245 797.528304,68.0184245 C807.28005,68.0184245 816.00316,69.6942205 823.697897,73.0458628 C831.392634,76.3975051 837.94449,80.8916853 843.353662,86.5285382 C848.762833,92.1653911 852.87679,98.71623 855.695654,106.181251 C858.514518,113.646273 859.923929,121.415872 859.923929,129.490283 C859.923929,131.470799 859.885836,133.375113 859.809651,135.203281 C859.733465,137.03145 859.543004,138.554901 859.238262,139.77368 L766.673325,139.77368 C767.130438,144.496449 768.273204,148.685939 770.101656,152.342276 C771.930108,155.998613 774.291824,159.121687 777.186873,161.711592 C780.081923,164.301498 783.357851,166.281984 787.014756,167.65311 C790.67166,169.024237 794.480879,169.70979 798.442526,169.70979 C804.537367,169.70979 810.289287,168.224425 815.698458,165.253651 C821.10763,162.282877 824.802572,158.359991 826.783395,153.484875 L853.067266,160.797513 C848.648507,169.938355 841.601452,177.441351 831.925892,183.306725 C822.250332,189.172099 810.708399,192.104742 797.299749,192.104742 L797.299749,192.104742 Z M828.383283,119.892447 C827.621428,110.903952 824.307408,103.705646 818.441123,98.2973141 C812.574839,92.8889823 805.4516,90.1848569 797.071193,90.1848569 C792.957175,90.1848569 789.109865,90.9084961 785.529146,92.3557962 C781.948426,93.8030962 778.786775,95.8216687 776.044096,98.4115741 C773.301418,101.001479 771.053979,104.124554 769.301712,107.780891 C767.549445,111.437228 766.520956,115.474373 766.216214,119.892447 L828.383283,119.892447 Z M934.432989,192.104742 C924.833614,192.104742 916.148596,190.467032 908.377674,187.191564 C900.606751,183.916095 893.978711,179.460001 888.493354,173.823148 C883.007997,168.186295 878.779764,161.635456 875.808529,154.170435 C872.837294,146.705413 871.351699,138.859641 871.351699,130.632883 C871.351699,122.10143 872.799202,114.065226 875.694251,106.524031 C878.589301,98.9828362 882.779441,92.3558247 888.264798,86.6427981 C893.750155,80.9297715 900.416288,76.3975051 908.263396,73.0458628 C916.110504,69.6942205 924.909799,68.0184245 934.661545,68.0184245 C944.41329,68.0184245 953.136401,69.6942205 960.831138,73.0458628 C968.525875,76.3975051 975.077731,80.8916853 980.486903,86.5285382 C985.896074,92.1653911 990.01003,98.71623 992.828894,106.181251 C995.647758,113.646273 997.057169,121.415872 997.057169,129.490283 C997.057169,131.470799 997.019077,133.375113 996.942891,135.203281 C996.866706,137.03145 996.676245,138.554901 996.371503,139.77368 L903.806565,139.77368 C904.263679,144.496449 905.406444,148.685939 907.234897,152.342276 C909.063349,155.998613 911.425064,159.121687 914.320114,161.711592 C917.215163,164.301498 920.491091,166.281984 924.147996,167.65311 C927.804901,169.024237 931.614119,169.70979 935.575766,169.70979 C941.670607,169.70979 947.422527,168.224425 952.831699,165.253651 C958.240871,162.282877 961.935813,158.359991 963.916636,153.484875 L990.200507,160.797513 C985.781747,169.938355 978.734693,177.441351 969.059132,183.306725 C959.383572,189.172099 947.84164,192.104742 934.432989,192.104742 L934.432989,192.104742 Z M965.516524,119.892447 C964.754669,110.903952 961.440648,103.705646 955.574364,98.2973141 C949.708079,92.8889823 942.58484,90.1848569 934.204434,90.1848569 C930.090416,90.1848569 926.243105,90.9084961 922.662386,92.3557962 C919.081667,93.8030962 915.920015,95.8216687 913.177337,98.4115741 C910.434658,101.001479 908.187219,104.124554 906.434953,107.780891 C904.682686,111.437228 903.654197,115.474373 903.349455,119.892447 L965.516524,119.892447 Z M1097.62155,189.819543 L1062.88112,137.945521 L1046.42514,154.170435 L1046.42514,189.819543 L1015.79871,189.819543 L1015.79871,23 L1046.42514,23 L1046.42514,124.234325 L1094.42177,70.3036237 L1127.10519,70.3036237 L1082.30833,121.035046 L1130.30497,189.819543 L1097.62155,189.819543 Z M1246.18256,189.819543 L1230.64079,189.819543 L1230.64079,123.320246 C1230.64079,109.761329 1228.31717,99.6303805 1223.66985,92.927096 C1219.02253,86.2238114 1212.20403,82.8722194 1203.21414,82.8722194 C1198.79538,82.8722194 1194.41478,83.7482037 1190.07221,85.5001985 C1185.72963,87.2521933 1181.65377,89.6516285 1177.84449,92.698576 C1174.03522,95.7455236 1170.7212,99.3256332 1167.90233,103.439012 C1165.08347,107.552392 1162.9884,112.046572 1161.61706,116.921688 L1161.61706,189.819543 L1146.07529,189.819543 L1146.07529,23 L1161.61706,23 L1161.61706,97.7260143 C1166.49293,88.7375191 1173.12097,81.6534724 1181.50138,76.4736616 C1189.88178,71.2938508 1198.87154,68.7039843 1208.47091,68.7039843 C1215.32761,68.7039843 1221.15572,69.9608313 1225.9554,72.474563 C1230.75509,74.9882947 1234.64049,78.4922318 1237.61173,82.9864794 C1240.58296,87.480727 1242.75422,92.8889777 1244.12556,99.2113938 C1245.4969,105.53381 1246.18256,112.503598 1246.18256,120.120967 L1246.18256,189.819543 Z M1315.20629,192.104742 C1302.71186,192.104742 1293.265,187.800993 1286.86542,179.193366 C1280.46583,170.58574 1277.26609,157.750666 1277.26609,140.68776 L1277.26609,70.7606636 L1292.80786,70.7606636 L1292.80786,137.945521 C1292.80786,164.911006 1302.02617,178.393547 1320.46306,178.393547 C1325.03419,178.393547 1329.52907,177.631821 1333.94783,176.108347 C1338.36659,174.584874 1342.44245,172.37587 1346.17554,169.48127 C1349.90863,166.58667 1353.26075,163.158905 1356.23198,159.197873 C1359.20322,155.236841 1361.60302,150.742661 1363.43148,145.715198 L1363.43148,70.7606636 L1378.97324,70.7606636 L1378.97324,169.70979 C1378.97324,173.975516 1380.87785,176.108347 1384.68713,176.108347 L1384.68713,189.819543 C1381.63971,190.276585 1379.50655,190.505102 1378.28758,190.505102 C1374.78304,190.505102 1371.77376,189.438687 1369.25964,187.305824 C1366.74552,185.17296 1365.48848,182.506921 1365.48848,179.307626 L1365.48848,162.854192 C1360.15549,172.147382 1353.07034,179.345687 1344.23282,184.449325 C1335.3953,189.552962 1325.71989,192.104742 1315.20629,192.104742 L1315.20629,192.104742 Z M1514.27804,189.819543 L1498.73627,189.819543 L1498.73627,123.320246 C1498.73627,109.15194 1496.6793,98.8686459 1492.56528,92.4700561 C1488.45126,86.0714663 1482.05177,82.8722194 1473.36662,82.8722194 C1468.79549,82.8722194 1464.22443,83.7101174 1459.6533,85.3859386 C1455.08217,87.0617597 1450.81584,89.4231086 1446.8542,92.4700561 C1442.89255,95.5170036 1439.42616,99.1351996 1436.45493,103.324752 C1433.48369,107.514305 1431.23625,112.046572 1429.71254,116.921688 L1429.71254,189.819543 L1414.17078,189.819543 L1414.17078,70.7606636 L1428.34121,70.7606636 L1428.34121,97.7260143 C1430.77915,93.4602878 1433.78843,89.5374017 1437.36915,85.9572384 C1440.94987,82.377075 1444.94955,79.2920869 1449.36831,76.7021815 C1453.78707,74.1122762 1458.47241,72.13179 1463.42446,70.7606636 C1468.37652,69.3895372 1473.51897,68.7039843 1478.85195,68.7039843 C1485.55628,68.7039843 1491.15583,69.922745 1495.65078,72.360303 C1500.14572,74.7978611 1503.76448,78.2256256 1506.50716,82.6436995 C1509.24984,87.0617734 1511.23063,92.4700241 1512.4496,98.8686139 C1513.66857,105.267204 1514.27804,112.35125 1514.27804,120.120967 L1514.27804,189.819543 Z M1603.18609,184.106545 C1602.27187,184.563587 1600.93864,185.172967 1599.18637,185.934704 C1597.43411,186.696441 1595.41522,187.458166 1593.12965,188.219903 C1590.84409,188.98164 1588.25382,189.667193 1585.35877,190.276583 C1582.46372,190.885972 1579.41635,191.190662 1576.21656,191.190662 C1572.86439,191.190662 1569.66465,190.733627 1566.61723,189.819543 C1563.56981,188.905458 1560.90335,187.496266 1558.61779,185.591924 C1556.33222,183.687582 1554.5038,181.288147 1553.13246,178.393547 C1551.76112,175.498946 1551.07546,172.147354 1551.07546,168.33867 L1551.07546,83.1007393 L1534.61947,83.1007393 L1534.61947,70.7606636 L1551.07546,70.7606636 L1551.07546,30.5411574 L1566.61723,30.5411574 L1566.61723,70.7606636 L1594.04388,70.7606636 L1594.04388,83.1007393 L1566.61723,83.1007393 L1566.61723,163.996792 C1566.92197,168.414865 1568.44566,171.652199 1571.18834,173.708888 C1573.93101,175.765578 1577.20694,176.793907 1581.01622,176.793907 C1585.43498,176.793907 1589.32038,176.070268 1592.67254,174.622968 C1596.02471,173.175668 1598.15787,172.147338 1599.0721,171.537949 L1603.18609,184.106545 Z M1673.58116,192.104742 C1664.89601,192.104742 1656.89665,190.467032 1649.58284,187.191564 C1642.26903,183.916095 1635.94573,179.421915 1630.61274,173.708888 C1625.27975,167.995862 1621.12771,161.406936 1618.15647,153.941915 C1615.18524,146.476894 1613.69964,138.478776 1613.69964,129.947323 C1613.69964,121.568218 1615.18524,113.684359 1618.15647,106.295511 C1621.12771,98.9066636 1625.27975,92.4319973 1630.61274,86.8713181 C1635.94573,81.3106388 1642.23094,76.8926312 1649.46856,73.6171626 C1656.70618,70.341694 1664.66745,68.7039843 1673.3526,68.7039843 C1682.03775,68.7039843 1689.99902,70.341694 1697.23664,73.6171626 C1704.47426,76.8926312 1710.68329,81.3487251 1715.86391,86.985578 C1721.04452,92.6224309 1725.08229,99.0970973 1727.97734,106.409771 C1730.87239,113.722445 1732.31989,121.492045 1732.31989,129.718803 C1732.31989,130.937582 1732.2818,132.156343 1732.20562,133.375122 C1732.12943,134.593901 1732.01515,135.431799 1731.86278,135.888841 L1630.15563,135.888841 C1630.61274,142.287431 1632.09834,148.190803 1634.61246,153.599135 C1637.12658,159.007467 1640.32633,163.692079 1644.21179,167.65311 C1648.09725,171.614142 1652.59213,174.69913 1657.69656,176.908167 C1662.80098,179.117204 1668.24817,180.221706 1674.03827,180.221706 C1677.99991,180.221706 1681.88532,179.688498 1685.69459,178.622067 C1689.50387,177.555635 1693.00835,176.108357 1696.20814,174.280188 C1699.40793,172.45202 1702.26485,170.204929 1704.77897,167.53885 C1707.29309,164.872771 1709.23579,161.940128 1710.60713,158.740833 L1724.0919,162.397152 C1722.26345,166.815226 1719.67318,170.814285 1716.32102,174.394448 C1712.96885,177.974611 1709.08345,181.097686 1704.66469,183.763765 C1700.24593,186.429844 1695.37013,188.486503 1690.03714,189.933803 C1684.70416,191.381103 1679.21888,192.104742 1673.58116,192.104742 L1673.58116,192.104742 Z M1717.46379,124.005805 C1717.00668,117.607215 1715.52108,111.780016 1713.00696,106.524031 C1710.49284,101.268047 1707.2931,96.7357804 1703.40764,92.927096 C1699.52217,89.1184116 1694.9892,86.1476823 1689.80859,84.014819 C1684.62797,81.8819558 1679.1427,80.8155401 1673.3526,80.8155401 C1667.5625,80.8155401 1662.07723,81.8819558 1656.89661,84.014819 C1651.716,86.1476823 1647.18303,89.1184116 1643.29757,92.927096 C1639.4121,96.7357804 1636.28854,101.306133 1633.92679,106.638291 C1631.56504,111.970449 1630.15563,117.759563 1629.69852,124.005805 L1717.46379,124.005805 Z M1815.05695,84.4718589 C1804.54335,84.7765536 1795.40122,87.6711104 1787.6303,93.1556159 C1779.85938,98.6401214 1774.3741,106.181203 1771.17431,115.779088 L1771.17431,189.819543 L1755.63254,189.819543 L1755.63254,70.7606636 L1770.26009,70.7606636 L1770.26009,99.3256538 C1774.37411,90.9465481 1779.7832,83.9767602 1786.48752,78.416081 C1793.19185,72.8554017 1800.42936,70.0751038 1808.20029,70.0751038 L1812.08573,70.0751038 C1813.3047,70.0751038 1814.29509,70.1512764 1815.05695,70.3036237 L1815.05695,84.4718589 Z" id="geekhunter" fill="#7F8080"></path>
                <g id="simbolo" fill="#6E2B77">
                    <path d="M467.051442,138.058382 C466.778917,97.9461998 433.095628,65.5602383 392.102499,66.0041224 C351.904968,66.4348219 319.276618,99.0097638 319.37332,138.612138 C319.470023,178.930881 352.832435,211.883783 393.425567,211.751937 C433.930787,211.62009 467.323968,178.196934 467.051442,138.058382 M125.877125,66.0020511 C85.4005601,65.6743742 51.5309875,98.4245877 51.3736782,138.047278 C51.2119991,177.451517 85.3350146,211.058059 125.344021,210.900774 C164.819923,210.74349 198.248156,178.268525 199.039072,139.309926 C199.838728,99.8925802 166.34058,66.329728 125.877125,66.0020511 M238.587673,79.8822057 C252.951295,108.713234 257.459501,138.773583 249.359423,170.376379 C234.39651,228.753607 180.100856,266.12029 115.17264,262.455525 C59.5933452,259.320373 9.5777794,212.772449 3.20210933,155.83716 C-2.29202479,106.757147 2.1272541,57.3137498 0.928674525,8.04817891 C0.781751868,1.90931148 9.02875263,0.0498686334 9.02875263,0.0498686334 L53.6932406,-0.000386578554 C53.6932406,-0.000386578554 62.6361908,2.29589003 62.2186211,8.83293337 C61.7546548,16.0542208 62.1103623,23.3334949 62.1103623,32.2827884 C79.1185931,24.7599698 94.3521529,18.447142 111.101336,16.4137388 C137.323164,13.2321973 162.160826,17.2680774 185.374606,29.4375703 C192.105983,32.9670325 196.637387,32.398762 203.090385,29.2249521 C241.379203,10.3831134 280.101056,10.2826029 318.304813,29.2868046 C325.581351,32.9051799 330.480062,32.0508413 337.223039,28.7417289 C423.779816,-13.7161937 523.250322,49.5435208 519.728044,144.583858 C517.937908,192.882983 486.450062,237.540537 440.0573,254.155683 C388.595706,272.591615 341.394869,263.827879 302.874068,224.242235 C266.274861,186.635873 259.21484,141.641995 277.270862,92.7127479 C282.993113,77.2070821 282.950582,76.5151065 266.270994,75.4520155 C257.007134,74.8605503 247.754873,74.794832 238.587673,79.8822057" id="Fill-2"></path>
                    <path d="M88.8307422,100.859376 C75.3787926,114.113943 65.3280462,136.34782 79.4211714,156.552331 C86.7288751,116.02868 112.915167,98.7875538 152.956797,97.2039685 C138.439052,81.3681153 106.834614,83.1172766 88.8307422,100.859376" id="Fill-3"></path>
                    <path d="M357.660931,100.859376 C344.208981,114.113943 334.158235,136.34782 348.25136,156.552331 C355.559064,116.02868 381.745356,98.7875538 421.786986,97.2039685 C407.269241,81.3681153 375.669049,83.1172766 357.660931,100.859376" id="Fill-4"></path>
                </g>
            </g>
        </g>
    </g>
</svg>