<?xml version="1.0" standalone="no"?>
<!DOCTYPE svg PUBLIC "-//W3C//DTD SVG 20010904//EN"
 "http://www.w3.org/TR/2001/REC-SVG-20010904/DTD/svg10.dtd">
<svg version="1.0" xmlns="http://www.w3.org/2000/svg"
 width="1280.000000pt" height="1280.000000pt" viewBox="0 0 1280.000000 1280.000000"
 preserveAspectRatio="xMidYMid meet">
<metadata>
Created by potrace 1.15, written by Peter Selinger 2001-2017
</metadata>
<g transform="translate(0.000000,1280.000000) scale(0.100000,-0.100000)"
fill="#000000" stroke="none">
<path d="M3227 10649 c-445 -39 -880 -189 -1239 -425 -286 -189 -553 -462
-729 -745 -71 -114 -180 -341 -224 -469 -197 -569 -191 -1259 17 -1883 274
-822 879 -1588 1978 -2503 186 -155 455 -369 900 -719 623 -489 871 -698 1144
-965 249 -244 434 -465 539 -647 23 -40 44 -72 47 -73 3 0 23 30 44 66 122
207 388 519 645 753 l87 79 149 -124 c83 -69 263 -214 400 -322 714 -563 920
-736 1121 -945 152 -157 260 -301 344 -456 36 -66 67 -121 70 -121 3 0 25 37
49 83 133 249 298 448 580 701 182 162 308 266 741 606 633 498 818 656 1116
954 365 366 574 644 750 1001 403 818 325 1714 -201 2317 -260 299 -649 520
-1062 604 -70 14 -129 27 -131 28 -1 2 4 34 12 72 42 199 51 304 50 604 0 332
-13 446 -79 699 -220 834 -851 1473 -1703 1726 -269 79 -480 109 -772 109
-393 0 -718 -72 -1045 -228 -378 -181 -672 -439 -901 -791 -74 -114 -180 -322
-224 -442 -19 -51 -37 -93 -40 -93 -3 0 -20 42 -39 93 -41 113 -131 295 -205
415 -326 526 -869 891 -1500 1006 -229 42 -472 55 -689 35z m4058 -3429 c312
-66 550 -194 766 -409 129 -130 221 -258 293 -411 41 -87 166 -433 166 -459 0
-6 4 -11 8 -11 4 0 27 60 51 133 96 293 173 450 299 614 217 279 521 465 890
543 128 28 393 37 539 20 670 -77 1231 -520 1422 -1121 158 -500 102 -1046
-163 -1566 -266 -523 -700 -987 -1555 -1663 -482 -381 -779 -620 -891 -716
-161 -138 -423 -402 -505 -509 -38 -49 -72 -94 -77 -100 -5 -5 -15 0 -24 14
-94 133 -296 348 -495 525 -177 158 -322 276 -729 597 -814 640 -1142 939
-1457 1331 -265 330 -472 744 -542 1083 -62 307 -57 635 14 910 166 638 698
1099 1395 1209 140 22 460 15 595 -14z"/>
</g>
</svg>
