<?xml version="1.0" encoding="utf-8"?>
<!-- Generator: Adobe Illustrator 19.0.0, SVG Export Plug-In . SVG Version: 6.00 Build 0)  -->
<!DOCTYPE svg PUBLIC "-//W3C//DTD SVG 1.1//EN" "http://www.w3.org/Graphics/SVG/1.1/DTD/svg11.dtd">
<svg version="1.1" id="Logo" xmlns="http://www.w3.org/2000/svg" xmlns:xlink="http://www.w3.org/1999/xlink" x="0px" y="0px"
	 viewBox="0 0 1190.6 841.9" style="enable-background:new 0 0 1190.6 841.9;" xml:space="preserve">
<style type="text/css">
	.st0{fill:#FFFFFF;}
</style>
<g id="XMLID_1644_">
	<g id="XMLID_1798_">
		<g id="XMLID_1814_">
			<path id="XMLID_1833_" class="st0" d="M634.5,683.1h-22.2c-0.2,0-1.6,0.1-1.6,3.3c0,3.2,1.4,3.3,1.6,3.3h22.2
				c0.2,0,1.6-0.1,1.6-3.3C636.1,683.2,634.6,683.1,634.5,683.1z"/>
			<g id="XMLID_1823_">
				<path id="XMLID_1830_" class="st0" d="M660.2,666.5c-12.1,0-20.5,8.4-20.5,20.4v4.5c0,12.2,8.6,20.4,21.3,20.4
					c10.4,0,19-6.3,19.3-14.1c0-0.1,0-0.3-0.2-0.6c-0.5-0.5-1.7-0.8-3.5-0.8c-3.4,0-3.7,1-3.7,1.3c0,3.7-4.8,7.7-11.9,7.7
					c-8,0-13-4.8-13-12.6v-1.2h28.9c3.3,0,3.5-1.3,3.5-1.5V687C680.4,675.1,671.9,666.5,660.2,666.5z M672.9,686H648
					c0-7.6,5.1-12.8,12.6-12.8C667.5,673.2,672.5,678.4,672.9,686z"/>
				<path id="XMLID_1829_" class="st0" d="M708.3,666.7c-18.2,0-20.3,1.8-20.5,2l-0.1,0.1v41.4c0,0.3,0.2,1.6,4.1,1.6
					c4,0,4.2-1.3,4.2-1.6v-36.8h12.3c10,0,10.1,9.2,10.1,9.6v27.2c0,0.3,0.2,1.6,4.1,1.6c4,0,4.2-1.3,4.2-1.6V683
					C726.8,682.8,726.6,666.7,708.3,666.7z"/>
				<path id="XMLID_1824_" class="st0" d="M770.1,646.7c-3.9,0-4.1,1.3-4.1,1.6v18.8c-3-0.2-7-0.2-12.4-0.2
					c-18.2,0-18.4,16.3-18.4,16.5v12c0,0.2,0.2,16.5,18.4,16.5c18.2,0,20.3-1.8,20.5-2l0.1-0.1v-61.4
					C774.2,648.1,774,646.7,770.1,646.7z M753.6,705.1c-10,0-10.1-9.4-10.1-9.8v-12c0-0.4,0.1-9.8,10.1-9.8h12.4v31.5H753.6z"/>
			</g>
			<g id="XMLID_1815_">
				<path id="XMLID_1822_" class="st0" d="M454.9,650h-34.2c-4.1,0-4.3,1.3-4.3,1.6v58.6c0,0.2,0.1,1.8,4.4,1.8c0,0,4.2-0.4,4.2-1.8
					v-25.3h26.3c0.2,0,1.6-0.1,1.6-3.5c0-3.6-1.4-3.7-1.6-3.7H425v-20.2h29.9c0.2,0,1.6-0.1,1.6-3.6
					C456.5,650.1,455.1,650,454.9,650z"/>
				<path id="XMLID_1821_" class="st0" d="M487.4,667.8c-0.1,0-3.2-0.7-10.8-0.7c-15.7,0-15.8,11.3-15.8,11.4v31.9
					c0,0.3,0.2,1.6,4.1,1.6c4,0,4.2-1.3,4.2-1.6v-31.9c0,0,0.1-4.7,8.9-4.7c6.4,0,9.2,0.6,9.2,0.6l0.1,0c0.2,0,1.5-0.1,1.5-3.2
					C488.8,668.4,487.5,667.8,487.4,667.8z"/>
				<path id="XMLID_1818_" class="st0" d="M510.4,666.7c-12.1,0-20.9,8.6-20.9,20.4v4.5c0,12,8.6,20.4,20.9,20.4
					c12.3,0,21-8.4,21-20.4v-4.5C531.3,675.3,522.5,666.7,510.4,666.7z M497.8,686.3c0-7.6,5-12.7,12.6-12.7c7.7,0,12.6,5,12.6,12.7
					v6.3c0,7.7-5,12.7-12.6,12.7c-7.6,0-12.6-5-12.6-12.7V686.3z"/>
				<path id="XMLID_1817_" class="st0" d="M558.7,666.9c-18.2,0-20.3,1.8-20.5,2l-0.1,0.1v41.4c0,0.3,0.2,1.6,4.1,1.6
					c4,0,4.2-1.3,4.2-1.6v-36.8h12.3c10,0,10.1,9.2,10.1,9.6v27.2c0,0.3,0.2,1.6,4.1,1.6c4,0,4.2-1.3,4.2-1.6v-27.2
					C577.2,683,577,666.9,558.7,666.9z"/>
				<path id="XMLID_1816_" class="st0" d="M606,704.8h-4.3c-4.6,0-4.6-3.9-4.7-4V674h8.7c0.2,0,1.6-0.1,1.6-3.3
					c0-3.2-1.4-3.3-1.6-3.3H597v-10.6c0-0.5-0.5-1.3-4.1-1.3c-3.6,0-4.1,0.8-4.1,1.3v10.6h-7.6c-0.2,0-1.6,0.1-1.6,3.3
					c0,3.2,1.4,3.3,1.6,3.3h7.6v27.8c0,0.1,0.1,9.8,12.9,9.8h4.3c0.2,0,1.3-0.2,1.3-3.3C607.3,705,606.2,704.8,606,704.8z"/>
			</g>
		</g>
		<g id="XMLID_1799_">
			<path id="XMLID_1813_" class="st0" d="M429.8,585.8c-8.4,0-13.4,5.5-13.4,14.2v4c0,8.6,5,14.2,13.4,14.2c7.2,0,12.3-4,12.3-9.8
				v-0.9c0,0-0.1-0.7-1.8-0.7c-1.9,0-2,0.7-2,0.7v0.7c0,3.9-3.6,6.3-8.5,6.3c-5.9,0-9.3-3.7-9.3-10v-5.1c0-6.3,3.4-10.1,9.2-10.1
				c4.8,0,8.5,2.6,8.5,6.3v0.7c0,0,0.1,0.7,2,0.7c1.8,0,1.9-0.7,1.9-0.7v-0.8C442.1,589.8,436.9,585.8,429.8,585.8z"/>
			<path id="XMLID_1810_" class="st0" d="M477,586c-1.9,0-2.2,0.7-2.2,0.7l-12.8,30.9c0,0,0,0.5,2.2,0.5c2.1,0,2.3-0.5,2.3-0.5
				l3-7.7h14.7l3,7.7c0,0,0.2,0.5,2.3,0.5c2,0,2.1-0.5,2.1-0.5l-12.6-30.9C479.2,586.7,478.8,586,477,586z M470.9,606.5L477,591
				l6,15.5H470.9z"/>
			<path id="XMLID_1809_" class="st0" d="M544.8,586c-2.1,0-2.3,0.5-2.3,0.5l-11.4,26.2l-11.5-26.2c0,0-0.2-0.5-2.4-0.5
				c-2.4,0-2.4,0.5-2.4,0.5v30.9c0,0,0,0.6,1.9,0.6c1.8,0,1.8-0.6,1.8-0.6v-25.2l10.7,25.1c0,0,0.2,0.6,1.8,0.6
				c1.5,0,1.7-0.6,1.7-0.6l10.7-25.4v25.4c0,0,0,0.6,1.8,0.6c1.9,0,1.9-0.6,1.9-0.6v-30.9C547.3,586.5,547.3,586,544.8,586z"/>
			<path id="XMLID_1806_" class="st0" d="M586.4,585.9c-9.8,0-12,1-12,1v30.6c0,0,0,0.6,2,0.6c2,0,2-0.6,2-0.6v-11.5
				c1.8,0.1,4.3,0.2,8,0.2c9.5,0,9.5-8.4,9.5-8.4v-3.4C595.8,594.3,595.8,585.9,586.4,585.9z M591.8,597.6c0,0,0,5.3-5.4,5.3h-7.9
				v-14h7.9c5.4,0,5.4,5.4,5.4,5.4V597.6z"/>
			<path id="XMLID_1805_" class="st0" d="M622.8,585.9c-2,0-2,0.6-2,0.6v30.9c0,0,0,0.6,2.1,0.6c2,0,2-0.6,2-0.6v-30.9
				C624.8,586.5,624.8,585.9,622.8,585.9z"/>
			<path id="XMLID_1804_" class="st0" d="M674.9,585.9c-2,0-2,0.6-2,0.6v24.8L656,586.4c0,0-0.3-0.5-2-0.5c-2,0-2,0.6-2,0.6v30.9
				c0,0,0,0.6,2.1,0.6c2,0,2-0.6,2-0.6v-24.9l16.9,25c0,0,0.3,0.5,2.1,0.5c2,0,2-0.6,2-0.6v-30.9
				C676.9,586.5,676.9,585.9,674.9,585.9z"/>
			<path id="XMLID_1801_" class="st0" d="M715.1,586c-1.9,0-2.2,0.7-2.2,0.7l-12.8,30.9c0,0,0,0.5,2.2,0.5c2.1,0,2.3-0.5,2.3-0.5
				l3-7.7h14.7l3,7.7c0,0,0.2,0.5,2.3,0.5c2,0,2.1-0.5,2.1-0.5l-12.6-30.9C717.2,586.7,716.9,586,715.1,586z M709,606.5l6.1-15.5
				l6,15.5H709z"/>
			<path id="XMLID_1800_" class="st0" d="M764.9,600.7c-5-1.7-9.1-2.9-9.1-6.5c0-3.2,2.9-5.1,7.2-5.1c4.9,0,7,2.6,7,6.2v0.7
				c0,0,0.2,0.7,1.9,0.7c1.8,0,1.9-0.7,1.9-0.7v-0.9c0-5-3-9.3-11-9.3c-7,0-11.1,3.3-11.1,8.5c0,5.7,4.9,7.5,9.9,9.1
				c4.6,1.5,8.8,3.2,8.8,6.7c0,3-2.6,4.8-7.4,4.8c-5.7,0-8.1-2.5-8.1-6.3v-0.8c0,0-0.2-0.7-1.9-0.7c-1.8,0-1.9,0.7-1.9,0.7v0.9
				c0,4.8,2.9,9.4,11.9,9.4c7.9,0,11.5-3.5,11.5-8.2C774.4,604.4,769.5,602.3,764.9,600.7z"/>
		</g>
	</g>
	<g id="XMLID_1645_">
		<g id="XMLID_1792_">
			<g id="XMLID_1793_">
				<g id="XMLID_1794_">
					<path id="XMLID_1795_" class="st0" d="M687.8,214.8l8.1-14.1l29.3,16.9l-8.1,14.1L687.8,214.8z M629.2,181l8.1-14.1l29.3,16.9
						l-8.1,14.1L629.2,181z"/>
				</g>
			</g>
		</g>
		<path id="XMLID_1791_" class="st0" d="M475.9,400.2l8.1,14.1c0.9,1.6,2.9,2.1,4.5,1.2l12-6.9c1.6-0.9,2.1-2.9,1.2-4.5l-8.1-14.1
			c-0.9-1.6-2.9-2.1-4.5-1.2l-12,6.9C475.5,396.6,475,398.6,475.9,400.2z"/>
		<path id="XMLID_1790_" class="st0" d="M714.7,282.2l-8.1-14.1c-0.9-1.6-2.9-2.1-4.5-1.2l-12,6.9c-1.6,0.9-2.1,2.9-1.2,4.5
			l8.1,14.1c0.9,1.6,2.9,2.1,4.5,1.2l12-6.9C715,285.8,715.6,283.8,714.7,282.2z"/>
		<path id="XMLID_1789_" class="st0" d="M713.1,396.5l-12-7c-1.6-0.9-3.6-0.4-4.5,1.2l-8.2,14.1c-0.9,1.6-0.4,3.6,1.2,4.5l12,7
			c1.6,0.9,3.6,0.4,4.5-1.2l8.2-14.1C715.2,399.4,714.7,397.4,713.1,396.5z"/>
		<path id="XMLID_1788_" class="st0" d="M477.5,285.9l12,7c1.6,0.9,3.6,0.4,4.5-1.2l8.2-14.1c0.9-1.6,0.4-3.6-1.2-4.5l-12-7
			c-1.6-0.9-3.6-0.4-4.5,1.2l-8.2,14.1C475.4,283,475.9,285,477.5,285.9z"/>
		<path id="XMLID_1784_" class="st0" d="M595.3,251.9c-49.3,0-89.3,40.1-89.3,89.3c0,49.3,40.1,89.3,89.3,89.3
			c49.3,0,89.3-40.1,89.3-89.3C684.6,291.9,644.5,251.9,595.3,251.9z M589.3,317.3c0,0.6-0.2,1.1-0.7,1.4l-30.3,21.9
			c-0.2,0.1-0.3,0.3-0.3,0.6c0,0.3,0.1,0.5,0.3,0.6l30.3,21.9c0.4,0.3,0.7,0.8,0.7,1.4V381c0,0.7-0.3,1.2-0.8,1.5
			c-0.2,0.1-0.4,0.1-0.6,0.1c-0.3,0-0.5-0.1-0.8-0.2l-55.1-39.8c-0.4-0.3-0.7-0.8-0.7-1.4c0-0.6,0.2-1.1,0.7-1.4l55.1-39.8
			c0.4-0.3,0.9-0.3,1.3-0.1c0.5,0.3,0.8,0.8,0.8,1.5V317.3z M658.5,342.6l-55.1,39.8c-0.2,0.2-0.5,0.2-0.8,0.2c-0.2,0-0.4,0-0.6-0.1
			c-0.5-0.3-0.8-0.8-0.8-1.5v-15.9c0-0.6,0.2-1.1,0.7-1.4l30.3-21.9c0.2-0.1,0.3-0.3,0.3-0.6c0-0.3-0.1-0.5-0.3-0.6l-30.3-21.9
			c-0.4-0.3-0.7-0.8-0.7-1.4v-15.9c0-0.7,0.3-1.2,0.8-1.5c0.4-0.2,0.9-0.2,1.3,0.1l55.1,39.8c0.4,0.3,0.7,0.8,0.7,1.4
			S658.9,342.3,658.5,342.6z"/>
		<path id="XMLID_1783_" class="st0" d="M595.3,507.8c-12.4,0-22.4,10.1-22.4,22.4s10.1,22.4,22.4,22.4c12.4,0,22.4-10.1,22.4-22.4
			S607.6,507.8,595.3,507.8z"/>
		<path id="XMLID_1782_" class="st0" d="M752,413.3c-12.4,0-22.4,10.1-22.4,22.4c0,12.4,10.1,22.4,22.4,22.4
			c12.4,0,22.4-10.1,22.4-22.4C774.4,423.3,764.4,413.3,752,413.3z"/>
		<path id="XMLID_1781_" class="st0" d="M438.6,413.3c-12.4,0-22.4,10.1-22.4,22.4c0,12.4,10.1,22.4,22.4,22.4
			c12.4,0,22.4-10.1,22.4-22.4C461,423.3,450.9,413.3,438.6,413.3z"/>
		<path id="XMLID_1767_" class="st0" d="M595.3,174.6c12.4,0,22.4-10.1,22.4-22.4s-10.1-22.4-22.4-22.4c-12.4,0-22.4,10.1-22.4,22.4
			S582.9,174.6,595.3,174.6z"/>
		<path id="XMLID_1766_" class="st0" d="M438.6,224.3c-12.4,0-22.4,10.1-22.4,22.4c0,12.4,10.1,22.4,22.4,22.4
			c12.4,0,22.4-10.1,22.4-22.4C461,234.3,450.9,224.3,438.6,224.3z"/>
		<path id="XMLID_1765_" class="st0" d="M752,269.1c12.4,0,22.4-10.1,22.4-22.4c0-12.4-10.1-22.4-22.4-22.4
			c-12.4,0-22.4,10.1-22.4,22.4C729.5,259.1,739.6,269.1,752,269.1z"/>
		<path id="XMLID_1764_" class="st0" d="M603.4,453.7h-16.3c-1.8,0-3.3,1.5-3.3,3.3v13.8c0,1.8,1.5,3.3,3.3,3.3h16.3
			c1.8,0,3.3-1.5,3.3-3.3V457C606.7,455.2,605.2,453.7,603.4,453.7z"/>
		<path id="XMLID_1763_" class="st0" d="M587.1,228.7h16.3c1.8,0,3.3-1.5,3.3-3.3v-13.8c0-1.8-1.5-3.3-3.3-3.3h-16.3
			c-1.8,0-3.3,1.5-3.3,3.3v13.8C583.8,227.2,585.3,228.7,587.1,228.7z"/>
		<g id="XMLID_1759_">
			<path id="XMLID_1760_" class="st0" d="M553.2,167l8.1,14.1L532,198l-8.1-14.1L553.2,167z M494.6,200.8l8.1,14.1l-29.3,16.9
				l-8.1-14.1L494.6,200.8z"/>
		</g>
		<g id="XMLID_1658_">
			<path id="XMLID_1659_" class="st0" d="M717,450.6l8.1,14.1l-29.3,16.9l-8.1-14.1L717,450.6z M658.5,484.4l8.1,14.1l-29.3,16.9
				l-8.1-14.1L658.5,484.4z"/>
		</g>
		<g id="XMLID_1654_">
			<path id="XMLID_1655_" class="st0" d="M523.9,498.4l8.1-14.1l29.3,16.9l-8.1,14.1L523.9,498.4z M465.3,464.6l8.1-14.1l29.3,16.9
				l-8.1,14.1L465.3,464.6z"/>
		</g>
		<g id="XMLID_1650_">
			<path id="XMLID_1651_" class="st0" d="M446.7,391.9h-16.3v-33.8h16.3V391.9z M446.7,324.3h-16.3v-33.8h16.3V324.3z"/>
		</g>
		<g id="XMLID_1646_">
			<path id="XMLID_1647_" class="st0" d="M760.1,391.9h-16.3v-33.8h16.3V391.9z M760.1,324.3h-16.3v-33.8h16.3V324.3z"/>
		</g>
	</g>
</g>
</svg>
